# This file uses centimeters as units for non-parametric coordinates.

v 5.446167 -0.337004 -1.342358
v 4.966664 -0.337004 -2.606706
v 4.198516 -0.337004 -3.719559
v 3.186366 -0.337004 -4.616245
v 1.989035 -0.337004 -5.244652
v 0.676110 -0.337004 -5.568259
v -0.676108 -0.337004 -5.568260
v -1.989034 -0.337004 -5.244651
v -3.186364 -0.337004 -4.616246
v -4.198515 -0.337004 -3.719559
v -4.966662 -0.337004 -2.606706
v -5.446164 -0.337004 -1.342358
v -5.609156 -0.337004 0.000000
v -5.446164 -0.337004 1.342358
v -4.966662 -0.337004 2.606706
v -4.198513 -0.337004 3.719558
v -3.186363 -0.337004 4.616245
v -1.989033 -0.337004 5.244651
v -0.676109 -0.337004 5.568258
v 0.676110 -0.337004 5.568258
v 1.989034 -0.337004 5.244651
v 3.186364 -0.337004 4.616245
v 4.198513 -0.337004 3.719558
v 4.966661 -0.337004 2.606705
v 5.446163 -0.337004 1.342359
v 5.609155 -0.337004 0.000001
v 6.143631 -0.371898 -1.514269
v 5.602720 -0.371898 -2.940534
v 4.736200 -0.371898 -4.195906
v 3.594428 -0.371898 -5.207427
v 2.243761 -0.371898 -5.916312
v 0.762696 -0.371898 -6.281361
v -0.762695 -0.371898 -6.281361
v -2.243761 -0.371898 -5.916312
v -3.594427 -0.371898 -5.207427
v -4.736198 -0.371898 -4.195906
v -5.602718 -0.371898 -2.940534
v -6.143629 -0.371898 -1.514269
v -6.327494 -0.371898 -0.000000
v -6.143629 -0.371898 1.514268
v -5.602718 -0.371898 2.940533
v -4.736198 -0.371898 4.195904
v -3.594426 -0.371898 5.207425
v -2.243760 -0.371898 5.916309
v -0.762695 -0.371898 6.281359
v 0.762695 -0.371898 6.281359
v 2.243760 -0.371898 5.916309
v 3.594426 -0.371898 5.207425
v 4.736196 -0.371898 4.195904
v 5.602716 -0.371898 2.940532
v 6.143627 -0.371898 1.514268
v 6.327492 -0.371898 0.000000
v 6.143631 0.371898 -1.514269
v 5.602720 0.371898 -2.940534
v 4.736200 0.371898 -4.195906
v 3.594428 0.371898 -5.207427
v 2.243761 0.371898 -5.916312
v 0.762696 0.371898 -6.281361
v -0.762695 0.371898 -6.281361
v -2.243761 0.371898 -5.916312
v -3.594426 0.371898 -5.207427
v -4.736198 0.371898 -4.195906
v -5.602718 0.371898 -2.940533
v -6.143630 0.371898 -1.514270
v -6.327494 0.371898 -0.000001
v -6.143629 0.371898 1.514267
v -5.602718 0.371898 2.940534
v -4.736197 0.371898 4.195904
v -3.594426 0.371898 5.207424
v -2.243761 0.371898 5.916309
v -0.762696 0.371898 6.281359
v 0.762696 0.371898 6.281359
v 2.243760 0.371898 5.916308
v 3.594426 0.371898 5.207426
v 4.736196 0.371898 4.195904
v 5.602716 0.371898 2.940534
v 6.143627 0.371898 1.514267
v 6.327491 0.371898 0.000000
v 5.446167 0.337004 -1.342358
v 4.966665 0.337004 -2.606705
v 4.198516 0.337004 -3.719559
v 3.186366 0.337004 -4.616246
v 1.989035 0.337004 -5.244652
v 0.676110 0.337004 -5.568260
v -0.676109 0.337004 -5.568260
v -1.989034 0.337004 -5.244652
v -3.186365 0.337004 -4.616246
v -4.198514 0.337004 -3.719559
v -4.966662 0.337004 -2.606705
v -5.446164 0.337004 -1.342359
v -5.609156 0.337004 0.000000
v -5.446164 0.337004 1.342359
v -4.966662 0.337004 2.606705
v -4.198513 0.337004 3.719559
v -3.186362 0.337004 4.616245
v -1.989034 0.337004 5.244651
v -0.676109 0.337004 5.568258
v 0.676109 0.337004 5.568258
v 1.989034 0.337004 5.244651
v 3.186364 0.337004 4.616245
v 4.198513 0.337004 3.719558
v 4.966661 0.337004 2.606705
v 5.446163 0.337004 1.342359
v 5.609155 0.337004 0.000001
vt 0.575855 0.137553
vt 0.569176 0.119943
vt 0.558477 0.104444
vt 0.544380 0.091954
vt 0.527704 0.083202
vt 0.509417 0.078695
vt 0.490583 0.078695
vt 0.472296 0.083202
vt 0.455620 0.091954
vt 0.441523 0.104444
vt 0.430824 0.119943
vt 0.424145 0.137553
vt 0.421875 0.156250
vt 0.424145 0.174947
vt 0.430824 0.192557
vt 0.441523 0.208056
vt 0.455620 0.220546
vt 0.472296 0.229298
vt 0.490583 0.233805
vt 0.509417 0.233805
vt 0.527704 0.229298
vt 0.544380 0.220546
vt 0.558477 0.208056
vt 0.569176 0.192557
vt 0.575855 0.174947
vt 0.578125 0.156250
vt 0.651710 0.118857
vt 0.638353 0.083637
vt 0.616955 0.052637
vt 0.588760 0.027659
vt 0.555407 0.010154
vt 0.518834 0.001139
vt 0.481166 0.001139
vt 0.444593 0.010154
vt 0.411240 0.027659
vt 0.383045 0.052637
vt 0.361647 0.083637
vt 0.348290 0.118857
vt 0.343750 0.156250
vt 0.348290 0.193643
vt 0.361647 0.228863
vt 0.383045 0.259863
vt 0.411240 0.284841
vt 0.444593 0.302346
vt 0.481166 0.311361
vt 0.518834 0.311361
vt 0.555407 0.302346
vt 0.588760 0.284841
vt 0.616955 0.259863
vt 0.638353 0.228863
vt 0.651710 0.193643
vt 0.656250 0.156250
vt 0.384615 0.312500
vt 0.394231 0.312500
vt 0.403846 0.312500
vt 0.413462 0.312500
vt 0.423077 0.312500
vt 0.432692 0.312500
vt 0.442308 0.312500
vt 0.451923 0.312500
vt 0.461539 0.312500
vt 0.471154 0.312500
vt 0.480769 0.312500
vt 0.490385 0.312500
vt 0.500000 0.312500
vt 0.509615 0.312500
vt 0.519231 0.312500
vt 0.528846 0.312500
vt 0.538462 0.312500
vt 0.548077 0.312500
vt 0.557692 0.312500
vt 0.567308 0.312500
vt 0.576923 0.312500
vt 0.586538 0.312500
vt 0.596154 0.312500
vt 0.605769 0.312500
vt 0.615384 0.312500
vt 0.625000 0.312500
vt 0.384615 0.688440
vt 0.394231 0.688440
vt 0.403846 0.688440
vt 0.413462 0.688440
vt 0.423077 0.688440
vt 0.432692 0.688440
vt 0.442308 0.688440
vt 0.451923 0.688440
vt 0.461539 0.688440
vt 0.471154 0.688440
vt 0.480769 0.688440
vt 0.490385 0.688440
vt 0.500000 0.688440
vt 0.509615 0.688440
vt 0.519231 0.688440
vt 0.528846 0.688440
vt 0.538462 0.688440
vt 0.548077 0.688440
vt 0.557692 0.688440
vt 0.567308 0.688440
vt 0.576923 0.688440
vt 0.586538 0.688440
vt 0.596154 0.688440
vt 0.605769 0.688440
vt 0.615384 0.688440
vt 0.625000 0.688440
vt 0.651710 0.806357
vt 0.638353 0.771137
vt 0.616955 0.740137
vt 0.588760 0.715159
vt 0.555407 0.697654
vt 0.518834 0.688639
vt 0.481166 0.688639
vt 0.444593 0.697654
vt 0.411240 0.715159
vt 0.383045 0.740137
vt 0.361647 0.771137
vt 0.348290 0.806357
vt 0.343750 0.843750
vt 0.348290 0.881143
vt 0.361647 0.916363
vt 0.383045 0.947363
vt 0.411240 0.972341
vt 0.444593 0.989846
vt 0.481166 0.998861
vt 0.518834 0.998861
vt 0.555407 0.989846
vt 0.588760 0.972341
vt 0.616955 0.947363
vt 0.638353 0.916363
vt 0.651710 0.881143
vt 0.656250 0.843750
vt 0.575855 0.825053
vt 0.569176 0.807443
vt 0.558477 0.791944
vt 0.544380 0.779454
vt 0.527704 0.770702
vt 0.509417 0.766195
vt 0.490583 0.766195
vt 0.472296 0.770702
vt 0.455620 0.779454
vt 0.441523 0.791944
vt 0.430824 0.807443
vt 0.424145 0.825053
vt 0.421875 0.843750
vt 0.424145 0.862447
vt 0.430824 0.880057
vt 0.441523 0.895556
vt 0.455620 0.908046
vt 0.472296 0.916798
vt 0.490583 0.921305
vt 0.509417 0.921305
vt 0.527704 0.916798
vt 0.544380 0.908046
vt 0.558477 0.895556
vt 0.569176 0.880057
vt 0.575855 0.862447
vt 0.578125 0.843750
vn -0.040223 -0.998805 0.027764
vn -0.040223 -0.998805 0.027764
vn -0.040223 -0.998805 0.027764
vn -0.040223 -0.998805 0.027764
vn -0.022713 -0.998805 0.043276
vn -0.022713 -0.998805 0.043276
vn -0.022713 -0.998805 0.043276
vn -0.022713 -0.998805 0.043276
vn -0.000000 -0.998805 0.048874
vn -0.000000 -0.998805 0.048874
vn -0.000000 -0.998805 0.048874
vn -0.000000 -0.998805 0.048874
vn 0.022713 -0.998805 0.043276
vn 0.022713 -0.998805 0.043276
vn 0.022713 -0.998805 0.043276
vn 0.022713 -0.998805 0.043276
vn 0.040223 -0.998805 0.027764
vn 0.040223 -0.998805 0.027764
vn 0.040223 -0.998805 0.027764
vn 0.040223 -0.998805 0.027764
vn 0.048518 -0.998805 0.005891
vn 0.048518 -0.998805 0.005891
vn 0.048518 -0.998805 0.005891
vn 0.048518 -0.998805 0.005891
vn 0.045698 -0.998805 -0.017331
vn 0.045698 -0.998805 -0.017331
vn 0.045698 -0.998805 -0.017331
vn 0.045698 -0.998805 -0.017331
vn 0.032410 -0.998805 -0.036583
vn 0.032410 -0.998805 -0.036583
vn 0.032410 -0.998805 -0.036583
vn 0.032410 -0.998805 -0.036583
vn 0.011696 -0.998805 -0.047454
vn 0.011696 -0.998805 -0.047454
vn 0.011696 -0.998805 -0.047454
vn 0.011696 -0.998805 -0.047454
vn -0.011696 -0.998805 -0.047454
vn -0.011696 -0.998805 -0.047454
vn -0.011696 -0.998805 -0.047454
vn -0.011696 -0.998805 -0.047454
vn -0.032410 -0.998805 -0.036583
vn -0.032410 -0.998805 -0.036583
vn -0.032410 -0.998805 -0.036583
vn -0.032410 -0.998805 -0.036583
vn -0.045699 -0.998805 -0.017331
vn -0.045699 -0.998805 -0.017331
vn -0.045699 -0.998805 -0.017331
vn -0.045699 -0.998805 -0.017331
vn -0.048518 -0.998805 0.005891
vn -0.048518 -0.998805 0.005891
vn -0.048518 -0.998805 0.005891
vn -0.048518 -0.998805 0.005891
vn 0.822984 0.000000 -0.568065
vn 0.822984 0.000000 -0.568065
vn 0.822984 0.000000 -0.568065
vn 0.822984 0.000000 -0.568065
vn 0.464723 0.000000 -0.885456
vn 0.464723 0.000000 -0.885456
vn 0.464723 0.000000 -0.885456
vn 0.464723 0.000000 -0.885456
vn 0.000000 0.000000 -1.000000
vn 0.000000 0.000000 -1.000000
vn 0.000000 0.000000 -1.000000
vn 0.000000 0.000000 -1.000000
vn -0.464723 0.000000 -0.885456
vn -0.464723 0.000000 -0.885456
vn -0.464723 0.000000 -0.885456
vn -0.464723 0.000000 -0.885456
vn -0.822984 -0.000000 -0.568064
vn -0.822984 -0.000000 -0.568064
vn -0.822984 -0.000000 -0.568064
vn -0.822984 -0.000000 -0.568064
vn -0.992709 -0.000001 -0.120536
vn -0.992709 -0.000001 -0.120536
vn -0.992709 -0.000001 -0.120536
vn -0.992709 -0.000001 -0.120536
vn -0.935016 0.000000 0.354605
vn -0.935016 0.000000 0.354605
vn -0.935016 0.000000 0.354605
vn -0.935016 0.000000 0.354605
vn -0.663122 0.000001 0.748511
vn -0.663122 0.000001 0.748511
vn -0.663122 0.000001 0.748511
vn -0.663122 0.000001 0.748511
vn -0.239316 -0.000000 0.970942
vn -0.239316 -0.000000 0.970942
vn -0.239316 -0.000000 0.970942
vn -0.239316 -0.000000 0.970942
vn 0.239316 0.000000 0.970942
vn 0.239316 0.000000 0.970942
vn 0.239316 0.000000 0.970942
vn 0.239316 0.000000 0.970942
vn 0.663123 -0.000001 0.748510
vn 0.663123 -0.000001 0.748510
vn 0.663123 -0.000001 0.748510
vn 0.663123 -0.000001 0.748510
vn 0.935016 0.000000 0.354605
vn 0.935016 0.000000 0.354605
vn 0.935016 0.000000 0.354605
vn 0.935016 0.000000 0.354605
vn 0.992709 0.000001 -0.120533
vn 0.992709 0.000001 -0.120533
vn 0.992709 0.000001 -0.120533
vn 0.992709 0.000001 -0.120533
vn -0.040223 0.998805 0.027764
vn -0.040223 0.998805 0.027764
vn -0.040223 0.998805 0.027764
vn -0.040223 0.998805 0.027764
vn -0.022713 0.998805 0.043276
vn -0.022713 0.998805 0.043276
vn -0.022713 0.998805 0.043276
vn -0.022713 0.998805 0.043276
vn 0.000000 0.998805 0.048874
vn 0.000000 0.998805 0.048874
vn 0.000000 0.998805 0.048874
vn 0.000000 0.998805 0.048874
vn 0.022713 0.998805 0.043276
vn 0.022713 0.998805 0.043276
vn 0.022713 0.998805 0.043276
vn 0.022713 0.998805 0.043276
vn 0.040223 0.998805 0.027764
vn 0.040223 0.998805 0.027764
vn 0.040223 0.998805 0.027764
vn 0.040223 0.998805 0.027764
vn 0.048518 0.998805 0.005891
vn 0.048518 0.998805 0.005891
vn 0.048518 0.998805 0.005891
vn 0.048518 0.998805 0.005891
vn 0.045699 0.998805 -0.017331
vn 0.045699 0.998805 -0.017331
vn 0.045699 0.998805 -0.017331
vn 0.045699 0.998805 -0.017331
vn 0.032410 0.998805 -0.036583
vn 0.032410 0.998805 -0.036583
vn 0.032410 0.998805 -0.036583
vn 0.032410 0.998805 -0.036583
vn 0.011696 0.998805 -0.047454
vn 0.011696 0.998805 -0.047454
vn 0.011696 0.998805 -0.047454
vn 0.011696 0.998805 -0.047454
vn -0.011697 0.998805 -0.047454
vn -0.011697 0.998805 -0.047454
vn -0.011697 0.998805 -0.047454
vn -0.011697 0.998805 -0.047454
vn -0.032410 0.998805 -0.036583
vn -0.032410 0.998805 -0.036583
vn -0.032410 0.998805 -0.036583
vn -0.032410 0.998805 -0.036583
vn -0.045699 0.998805 -0.017331
vn -0.045699 0.998805 -0.017331
vn -0.045699 0.998805 -0.017331
vn -0.045699 0.998805 -0.017331
vn -0.048518 0.998805 0.005891
vn -0.048518 0.998805 0.005891
vn -0.048518 0.998805 0.005891
vn -0.048518 0.998805 0.005891
vn -0.992709 0.000000 0.120533
vn -0.992709 0.000000 0.120533
vn -0.992709 0.000000 0.120533
vn -0.992709 0.000000 0.120533
vn -0.935017 0.000000 -0.354604
vn -0.935017 0.000000 -0.354604
vn -0.935017 0.000000 -0.354604
vn -0.935017 0.000000 -0.354604
vn -0.663123 0.000000 -0.748511
vn -0.663123 0.000000 -0.748511
vn -0.663123 0.000000 -0.748511
vn -0.663123 0.000000 -0.748511
vn -0.239316 -0.000000 -0.970942
vn -0.239316 -0.000000 -0.970942
vn -0.239316 -0.000000 -0.970942
vn -0.239316 -0.000000 -0.970942
vn 0.239316 -0.000000 -0.970942
vn 0.239316 -0.000000 -0.970942
vn 0.239316 -0.000000 -0.970942
vn 0.239316 -0.000000 -0.970942
vn 0.663122 0.000000 -0.748511
vn 0.663122 0.000000 -0.748511
vn 0.663122 0.000000 -0.748511
vn 0.663122 0.000000 -0.748511
vn 0.935017 -0.000001 -0.354604
vn 0.935017 -0.000001 -0.354604
vn 0.935017 -0.000001 -0.354604
vn 0.935017 -0.000001 -0.354604
vn 0.992709 0.000001 0.120536
vn 0.992709 0.000001 0.120536
vn 0.992709 0.000001 0.120536
vn 0.992709 0.000001 0.120536
vn 0.822984 -0.000000 0.568065
vn 0.822984 -0.000000 0.568065
vn 0.822984 -0.000000 0.568065
vn 0.822984 -0.000000 0.568065
vn 0.464722 0.000000 0.885457
vn 0.464722 0.000000 0.885457
vn 0.464722 0.000000 0.885457
vn 0.464722 0.000000 0.885457
vn 0.000000 0.000000 1.000000
vn 0.000000 0.000000 1.000000
vn 0.000000 0.000000 1.000000
vn 0.000000 0.000000 1.000000
vn -0.464722 0.000000 0.885457
vn -0.464722 0.000000 0.885456
vn -0.464722 0.000000 0.885457
vn -0.464722 0.000000 0.885457
vn -0.822983 0.000001 0.568065
vn -0.822983 0.000001 0.568066
vn -0.822983 0.000001 0.568065
vn -0.822983 0.000001 0.568066
vn -0.239317 0.000000 -0.970941
vn -0.239317 0.000000 -0.970941
vn -0.239317 0.000000 -0.970941
vn -0.239317 0.000000 -0.970941
vn 0.464723 -0.000001 0.885456
vn 0.464723 -0.000001 0.885456
vn 0.464723 -0.000001 0.885456
vn 0.464723 -0.000001 0.885456
vn -0.663123 0.000000 -0.748510
vn -0.663123 0.000000 -0.748510
vn -0.663123 0.000000 -0.748510
vn -0.663123 0.000000 -0.748510
vn 0.822984 0.000000 0.568064
vn 0.822984 0.000000 0.568064
vn 0.822984 0.000000 0.568064
vn 0.822984 0.000000 0.568064
vn -0.935016 0.000000 -0.354604
vn -0.935016 0.000000 -0.354604
vn -0.935016 0.000000 -0.354604
vn -0.935016 0.000000 -0.354604
vn 0.992709 0.000000 0.120536
vn 0.992709 0.000000 0.120536
vn 0.992709 0.000000 0.120536
vn 0.992709 0.000000 0.120536
vn -0.992709 -0.000001 0.120537
vn -0.992709 -0.000001 0.120537
vn -0.992709 -0.000001 0.120537
vn -0.992709 -0.000001 0.120537
vn 0.935016 -0.000001 -0.354604
vn 0.935016 -0.000001 -0.354604
vn 0.935016 -0.000001 -0.354604
vn 0.935016 -0.000001 -0.354604
vn -0.822984 0.000001 0.568064
vn -0.822984 0.000001 0.568064
vn -0.822984 0.000001 0.568064
vn -0.822984 0.000001 0.568064
vn 0.663123 -0.000001 -0.748510
vn 0.663123 -0.000001 -0.748510
vn 0.663123 -0.000001 -0.748510
vn 0.663123 -0.000001 -0.748510
vn -0.464723 -0.000001 0.885456
vn -0.464723 -0.000001 0.885456
vn -0.464723 -0.000001 0.885456
vn -0.464723 -0.000001 0.885456
vn 0.239318 -0.000001 -0.970941
vn 0.239318 -0.000001 -0.970941
vn 0.239318 -0.000001 -0.970941
vn 0.239318 -0.000001 -0.970941
vn -0.000001 0.000000 1.000000
vn -0.000001 0.000000 1.000000
vn -0.000001 0.000000 1.000000
vn -0.000001 0.000000 1.000000
vn -0.239315 -0.000000 -0.970942
vn -0.239315 -0.000000 -0.970942
vn -0.239315 -0.000000 -0.970942
vn -0.239315 -0.000000 -0.970942
vn 0.464723 -0.000000 0.885456
vn 0.464723 -0.000000 0.885456
vn 0.464723 -0.000000 0.885456
vn 0.464723 -0.000000 0.885456
vn -0.663122 0.000001 -0.748511
vn -0.663122 0.000001 -0.748511
vn -0.663122 0.000001 -0.748511
vn -0.663122 0.000001 -0.748511
vn 0.822983 -0.000000 0.568066
vn 0.822983 -0.000000 0.568066
vn 0.822983 -0.000000 0.568066
vn 0.822983 -0.000000 0.568066
vn -0.935016 -0.000001 -0.354606
vn -0.935016 -0.000001 -0.354606
vn -0.935016 -0.000001 -0.354606
vn -0.935016 -0.000001 -0.354606
vn 0.992709 0.000000 0.120537
vn 0.992709 0.000000 0.120537
vn 0.992709 0.000000 0.120537
vn 0.992709 0.000000 0.120537
vn -0.992709 0.000000 0.120536
vn -0.992709 0.000000 0.120536
vn -0.992709 0.000000 0.120536
vn -0.992709 0.000000 0.120536
vn 0.935017 -0.000000 -0.354604
vn 0.935017 -0.000000 -0.354604
vn 0.935017 -0.000000 -0.354604
vn 0.935017 -0.000000 -0.354604
vn -0.822985 -0.000000 0.568063
vn -0.822985 -0.000000 0.568063
vn -0.822985 -0.000000 0.568063
vn -0.822985 -0.000000 0.568063
vn 0.663123 0.000000 -0.748511
vn 0.663123 0.000000 -0.748511
vn 0.663123 0.000000 -0.748511
vn 0.663123 0.000000 -0.748510
vn -0.464724 -0.000001 0.885456
vn -0.464724 -0.000001 0.885456
vn -0.464724 -0.000001 0.885456
vn -0.464724 -0.000001 0.885456
vn 0.239315 -0.000001 -0.970942
vn 0.239315 -0.000001 -0.970942
vn 0.239315 -0.000001 -0.970942
vn 0.239315 -0.000001 -0.970942
vn 0.000001 -0.000000 1.000000
vn 0.000001 -0.000000 1.000000
vn 0.000001 -0.000000 1.000000
vn 0.000001 -0.000000 1.000000
f 2/2/1 3/3/2 29/29/3 28/28/4
f 4/4/5 5/5/6 31/31/7 30/30/8
f 6/6/9 7/7/10 33/33/11 32/32/12
f 8/8/13 9/9/14 35/35/15 34/34/16
f 10/10/17 11/11/18 37/37/19 36/36/20
f 12/12/21 13/13/22 39/39/23 38/38/24
f 14/14/25 15/15/26 41/41/27 40/40/28
f 16/16/29 17/17/30 43/43/31 42/42/32
f 18/18/33 19/19/34 45/45/35 44/44/36
f 20/20/37 21/21/38 47/47/39 46/46/40
f 22/22/41 23/23/42 49/49/43 48/48/44
f 24/24/45 25/25/46 51/51/47 50/50/48
f 26/26/49 1/1/50 27/27/51 52/52/52
f 28/53/53 29/54/54 55/80/55 54/79/56
f 30/55/57 31/56/58 57/82/59 56/81/60
f 32/57/61 33/58/62 59/84/63 58/83/64
f 34/59/65 35/60/66 61/86/67 60/85/68
f 36/61/69 37/62/70 63/88/71 62/87/72
f 38/63/73 39/64/74 65/90/75 64/89/76
f 40/65/77 41/66/78 67/92/79 66/91/80
f 42/67/81 43/68/82 69/94/83 68/93/84
f 44/69/85 45/70/86 71/96/87 70/95/88
f 46/71/89 47/72/90 73/98/91 72/97/92
f 48/73/93 49/74/94 75/100/95 74/99/96
f 50/75/97 51/76/98 77/102/99 76/101/100
f 52/77/101 27/78/102 53/104/103 78/103/104
f 54/128/105 55/127/106 81/153/107 80/154/108
f 56/126/109 57/125/110 83/151/111 82/152/112
f 58/124/113 59/123/114 85/149/115 84/150/116
f 60/122/117 61/121/118 87/147/119 86/148/120
f 62/120/121 63/119/122 89/145/123 88/146/124
f 64/118/125 65/117/126 91/143/127 90/144/128
f 66/116/129 67/115/130 93/141/131 92/142/132
f 68/114/133 69/113/134 95/139/135 94/140/136
f 70/112/137 71/111/138 97/137/139 96/138/140
f 72/110/141 73/109/142 99/135/143 98/136/144
f 74/108/145 75/107/146 101/133/147 100/134/148
f 76/106/149 77/105/150 103/131/151 102/132/152
f 78/130/153 53/129/154 79/155/155 104/156/156
f 1/1/157 26/26/158 104/156/159 79/155/160
f 25/25/161 24/24/162 102/132/163 103/131/164
f 23/23/165 22/22/166 100/134/167 101/133/168
f 21/21/169 20/20/170 98/136/171 99/135/172
f 19/19/173 18/18/174 96/138/175 97/137/176
f 17/17/177 16/16/178 94/140/179 95/139/180
f 15/15/181 14/14/182 92/142/183 93/141/184
f 13/13/185 12/12/186 90/144/187 91/143/188
f 11/11/189 10/10/190 88/146/191 89/145/192
f 9/9/193 8/8/194 86/148/195 87/147/196
f 7/7/197 6/6/198 84/150/199 85/149/200
f 5/5/201 4/4/202 82/152/203 83/151/204
f 3/3/205 2/2/206 80/154/207 81/153/208
f 27/27/209 1/1/210 79/155/211 53/104/212
f 28/53/213 54/128/214 80/154/215 2/2/216
f 29/29/217 3/3/218 81/153/219 55/80/220
f 30/55/221 56/126/222 82/152/223 4/4/224
f 31/31/225 5/5/226 83/151/227 57/82/228
f 32/57/229 58/124/230 84/150/231 6/6/232
f 33/33/233 7/7/234 85/149/235 59/84/236
f 34/59/237 60/122/238 86/148/239 8/8/240
f 35/35/241 9/9/242 87/147/243 61/86/244
f 36/61/245 62/120/246 88/146/247 10/10/248
f 37/37/249 11/11/250 89/145/251 63/88/252
f 38/63/253 64/118/254 90/144/255 12/12/256
f 39/39/257 13/13/258 91/143/259 65/90/260
f 40/65/261 66/116/262 92/142/263 14/14/264
f 41/41/265 15/15/266 93/141/267 67/92/268
f 42/67/269 68/114/270 94/140/271 16/16/272
f 43/43/273 17/17/274 95/139/275 69/94/276
f 44/69/277 70/112/278 96/138/279 18/18/280
f 45/45/281 19/19/282 97/137/283 71/96/284
f 46/71/285 72/110/286 98/136/287 20/20/288
f 47/47/289 21/21/290 99/135/291 73/98/292
f 48/73/293 74/108/294 100/134/295 22/22/296
f 49/49/297 23/23/298 101/133/299 75/100/300
f 50/75/301 76/106/302 102/132/303 24/24/304
f 51/51/305 25/25/306 103/131/307 77/102/308
f 52/77/309 78/130/310 104/156/311 26/26/312
