<?xml version="1.0" encoding="utf-8"?>
<!-- Generator: Adobe Illustrator 24.0.3, SVG Export Plug-In . SVG Version: 6.00 Build 0)  -->
<svg version="1.1" xmlns="http://www.w3.org/2000/svg" xmlns:xlink="http://www.w3.org/1999/xlink" x="0px" y="0px"
	 viewBox="0 0 1200 300" style="enable-background:new 0 0 1200 300;" xml:space="preserve">
<style type="text/css">
	.st0{fill:#33A3DB;stroke:#378B3E;stroke-miterlimit:10;}
	.st1{fill:#0071BC;}
	.st2{fill:none;}
	.st3{fill:#FFFFFF;}
</style>
<g id="Layer_1">
</g>
<g id="SolidColor">
	<rect class="st0" width="1200" height="300"/>
</g>
<g id="DESIGN">
	<g>
		<polygon class="st1" points="948.46,195.57 944.39,168.23 950.21,168.23 		"/>
		<g>
			<path class="st1" d="M974.17,239.01c-0.61,0.33-1.33,0.63-1.86,0.97l-0.01-0.01C972.84,239.63,973.56,239.33,974.17,239.01z"/>
			<line class="st2" x1="1200" y1="197.42" x2="1200" y2="185.67"/>
			<path class="st1" d="M1200,185.67v11.75c-1.79-0.06-3.58-0.12-5.36-0.13c-5.46,0-10.93,0-16.4,0.01h-6.07
				c-11.72,0.02-23.45,0.02-35.19,0.05c-4.38,0.01-8.77,0.03-13.15,0.05c-4.05,0.02-8.12,0.33-12-0.79
				c-2.2-0.73-3.29-2.31-4.72-3.69c-3.3-3.19-8.94-3.94-13.76-2.53c-3.35,0.97-5.24,2.84-7.89,4.56c-1.55,1.01-3.34,1.79-5.31,2.2
				c-1.57,0.3-3.2,0.38-4.8,0.25c-3.87-0.3-7.76-0.49-11.65-0.69c-2.66-0.14-5.76-0.19-7.98,1.21c-2.47,1.56-3.63,4.01-5.16,6.09
				c-4.88,6.71-9.81,13.38-14.54,20.14c-1.99,2.84-4.54,4.79-8.92,4.19c-4.47-0.62-5.86-3.22-6.3-6.4
				c-2.58-18.84-5.26-37.68-7.78-56.52c-0.12-0.81-0.83-5.92-1.03-7.25c-0.67-4.33-1.3-8.66-1.92-13c-0.62-4.33-1.23-8.66-1.81-13
				c-0.56-4.27-1.06-8.55-1.54-12.83c0-0.98-0.17-2.01-0.33-2.97c-0.1-0.57-0.4-1.35-1.27-1.43c-0.57-0.05-0.98,0.28-1.16,0.66
				c-0.87,1.83-1.27,8.22-1.32,8.72c-0.97,8.23-2.08,16.45-3.28,24.67c-0.06,0.35-0.72,4.97-0.9,6.33
				c-3.85,29.17-7.8,58.31-11.76,87.45c-0.84,6.17-1.72,12.45-2.65,18.66c-0.89,6.08-1.32,12.37-2.88,18.36
				c-0.41,1.6-0.7,3.16-2.19,4.39c-1.49,1.25-3.93,1.88-5.97,1.28c-1.21-0.36-2.19-1.11-2.9-1.94c-3.04-3.63-3.91-8.56-5.11-12.7
				c-1.46-5-2.58-10.05-3.63-15.12c-0.54-2.63-1.06-5.26-1.62-7.89c-0.28-1.31-0.57-2.63-0.87-3.94c-0.27-1.18-0.9-2.55-0.9-3.74
				c-2.74-12.64-5.43-25.28-8.13-37.91c-0.08-0.37-0.56-2.63-1.22-5.69c-0.02-0.09-0.03-0.17-0.05-0.26
				c-0.04-0.18-0.08-0.41-0.12-0.7l-0.03-0.21c-0.44-3.4-0.95-12.95-0.47-21.16c0.05-0.91,0.11-1.81,0.19-2.67
				c0.1-1.16,0.23-2.26,0.38-3.3c0.63-4.22,1.7-7.26,3.44-7.53c1.62-0.25,3.57,1.93,4.31,3.02c0.13,0.18,0.31,0.42,0.53,0.86
				c0,0.01,0.01,0.02,0.01,0.03c0.06,0.12,0.13,0.26,0.19,0.42c0.28,0.67,0.58,1.67,0.87,3.23c0.31,1.64,0.62,3.3,0.97,4.95
				c0.77,3.59,1.52,7.18,2.29,10.78c0.03,0.18,0.07,0.36,0.11,0.54c3.28,15.29,6.57,30.6,9.88,45.89c0.21,1.01,0.58,2.01,1.7,3.01
				c4.04-29.58,8.09-59.16,12.17-89.1c0.11-0.81,2.14-15.08,2.25-16c1.77-13.97,3.68-27.95,5.58-41.92
				c1.43-10.54,2.82-21.08,4.35-31.63c0.66-4.51,3.27-6.75,7.46-6.8c4.28-0.06,7.17,2.17,7.8,6.54c2.51,17.25,4.91,34.51,7.21,51.77
				c0.13,0.93,0.66,5.27,0.76,5.9c2.77,18.93,5.45,37.86,7.97,56.81c0.12,0.88,0.87,6.62,1.13,8.11c1.28,7.49,2.18,15.03,3.25,22.54
				c0.04,0.26,0.1,0.51,0.16,0.78c0.24,1.03,2.02,1.26,2.7,0.36c0.96-0.92,1.62-2.19,2.4-3.23c0.82-1.11,1.65-2.22,2.48-3.33
				c1.58-2.13,2.62-4.57,4.75-6.44c2.53-2.22,6.09-2.29,9.66-2.23c2.85,0.05,5.72,0.05,8.57,0.12c4.62,0.09,9.47,0.59,13.94-0.61
				c3.03-0.81,5.52-2.38,7.47-4.31c5.52-5.47,16-5.56,23.26-2.25c1.89,0.85,3.53,1.98,5.01,3.22c1.45,1.24,2.99,2.63,5.06,3.21
				c2.29,0.65,4.75,0.81,7.17,0.83c11.5,0.07,23.02-0.11,34.52-0.12c11.75-0.02,23.5,0,35.23,0.01
				C1196.76,185.66,1198.38,185.66,1200,185.67z"/>
			<path class="st1" d="M9.87,196.57c25.35-0.02,50.7-0.04,76.05-0.05c3.05-0.01,6.31-0.07,8.8-1.84c3.18-2.25,4.07-6.5,6.09-9.83
				c4.64-7.67,16.53-9.58,23.33-3.75c4.08,3.49,6.15,8.91,10.26,12.36c11.77,9.88,30.47-1.88,44.82,3.63
				c10.81,4.15,15.55,16.46,22.85,25.45c3.14,3.88,8.47,7.47,12.77,4.95c2.94-1.73,3.82-5.48,4.44-8.83
				c7.97-43.55,15.95-87.1,23.92-130.65c5.75,62.97,11.5,125.94,17.24,188.91c0.33,3.56,1.69,10.06,5.35,11.12
				c4.43,1.27,9.95-6.13,10.19-6.46c2.4-3.29,3.52-6.9,4.76-17.03c0.99-8.03,0.47-7.4,1.39-15.43c0.83-7.28,2.03-14.56,4.43-29.1
				c0.03-0.17,0.08-0.52,0.16-0.98c0.19-1.06,0.49-2.76,0.92-4.83c0,0,0.01-0.07,0.04-0.19c0.49-2.12,0.97-4.23,1.46-6.34
				c0.87-3.83,1.88-12.2,3.63-22.74c0.42-2.58,2.22-15.72,2-17.14c-0.67-4.21-2.98-9.24-5.07-9.13c-1.67,0.09-2.96,3.42-3.45,5.67
				c-3.45,16.03-6.89,32.07-10.34,48.1c-0.79,3.66-1.92,7.78-5.26,9.45c-5.55-63.03-11.09-126.07-16.63-189.11
				c-0.52-5.93-3.12-13.72-9.04-13.14c-4.87,0.48-6.84,6.4-7.69,11.22c-10.06,57.1-20.12,114.21-30.19,171.31
				c-4.56-0.38-6.28-5.95-8.85-9.73c-5.5-8.11-17.04-8.93-26.8-7.95c-9.75,0.99-20.44,2.75-28.67-2.57
				c-3.89-2.5-6.73-6.33-10.29-9.29c-11.18-9.3-29.66-7.94-39.36,2.89c-2.68,2.98-4.88,6.66-8.53,8.32
				c-2.5,1.14-5.34,1.15-8.09,1.15c-14.45-0.02-28.9-0.05-43.35-0.07c-7.23-0.01-14.46-0.11-21.68-0.03
				c-2.08,0.02-5.23-0.15-7.88,0.46C3.6,185.35,7.88,196.57,9.87,196.57z"/>
			<path class="st1" d="M951.23,192.41v0.01c0,0,0,0-0.01-0.01H951.23z"/>
			<path class="st1" d="M283.82,225.91L283.82,225.91z"/>
			<path class="st1" d="M312.56,246.72L312.56,246.72z"/>
			<path class="st1" d="M291.43,179.6L291.43,179.6z"/>
			<path class="st1" d="M291.04,196.54l-11.26,77.09c0,0-0.02,0.17-0.03,0.17c-0.04,0.29-0.17,1.14-0.21,1.43
				c-0.18,1.21-0.35,2.42-0.53,3.63l-7.47-29.63L291.04,196.54z"/>
			<polygon class="st1" points="292.98,188.2 288.43,214.41 282.3,202.06 			"/>
			<ellipse class="st1" cx="269.76" cy="279.86" rx="9" ry="9.89"/>
			<path class="st1" d="M260.58,278.1L260.58,278.1z"/>
			<path class="st1" d="M260.35,275.85L260.35,275.85z"/>
			<polygon class="st1" points="260.27,274.95 260.79,280.68 261.28,279.14 			"/>
			<path class="st1" d="M278.33,281.64L278.33,281.64z"/>
			<path class="st1" d="M279.18,277.75L279.18,277.75z"/>
			<path class="st1" d="M279.85,273.21L279.85,273.21z"/>
			<polygon class="st1" points="279.38,276.41 278.69,281.03 277.89,278.33 278.29,276.25 			"/>
			<path class="st1" d="M275.02,213.36c0.81-2.68,1.61-5.35,2.42-8.03c0.85,3.8,1.8,7.58,2.69,11.37L275.02,213.36z"/>
			<polygon class="st1" points="270.65,221.89 276.22,211.02 278.79,217.92 			"/>
			
				<ellipse transform="matrix(0.1668 -0.986 0.986 0.1668 80.7883 423.6132)" class="st1" cx="291.04" cy="164.01" rx="5.68" ry="5.16"/>
			
				<ellipse transform="matrix(0.9868 -0.1617 0.1617 0.9868 -14.4505 156.119)" class="st1" cx="951.86" cy="166.83" rx="5.43" ry="6.92"/>
			
				<ellipse transform="matrix(0.9945 -0.1049 0.1049 0.9945 -12.3183 100.7125)" class="st1" cx="950.86" cy="167.41" rx="6.47" ry="7.77"/>
			<polygon class="st1" points="292.98,188.2 295.55,171.41 292.88,169.79 291.61,189.98 			"/>
		</g>
	</g>
	<polyline class="st1" points="0,194.82 9.87,196.57 4.94,187.83 0,187.83 	"/>
	<path class="st1" d="M296.18,163.16"/>
	<polygon class="st1" points="295.45,172.04 296.21,163.71 293.45,165.3 293.58,171.52 	"/>
</g>
<g id="Title_copy_2">
	<g>
		<path class="st1" d="M379.13,120.51l-5.07,3.9c-2.51,1.93-6.07,1.82-8.37-0.36c-4.51-4.28-10.27-7.42-17.96-7.42
			c-9.8,0-13.69,4.16-13.69,9.26c0,5.37,3.89,7.52,17.18,11.81c13.02,4.29,26.71,11,26.71,26.71c0,21.34-15.97,31.54-37.44,31.54
			c-15.31,0-26.9-5.89-34-13.57c-2.66-2.88-2.18-7.45,1.02-9.73l5.12-3.64c2.59-1.84,6.08-1.5,8.37,0.7
			c6.37,6.1,14.25,8.25,22.31,8.25c8.05,0,14.9-3.09,14.9-11.27c0-4.97-4.7-8.32-18.92-12.75c-14.36-4.56-24.69-11.54-24.69-25.23
			c0-20.94,16.64-29.66,35.3-29.66c13.31,0,23.02,4.81,29.94,11.75C382.58,113.56,382.22,118.13,379.13,120.51z"/>
		<path class="st1" d="M477.04,100.53c3.68,0,6.47,3.32,5.83,6.94l-8.44,48.08c-4.7,26.44-16.64,40.4-41.87,40.4
			c-19.86,0-33.95-10.07-33.95-32.34c0-3.22,0.4-8.72,1.07-12.48l8-45.7c0.5-2.83,2.96-4.9,5.83-4.9h6.76
			c3.68,0,6.47,3.33,5.83,6.95l-7.36,41.63c-0.54,3.22-1.07,7.65-1.07,12.21c0,10.87,5.91,16.24,17.18,16.24
			c10.87,0,18.12-6.44,20.94-22.28l8.68-49.85c0.49-2.84,2.95-4.91,5.83-4.91H477.04z"/>
		<path class="st1" d="M578.57,126.16c0,17.98-10.74,28.05-23.49,31.81l9.06,28.65c1.23,3.89-1.68,7.86-5.76,7.86h-7.49
			c-2.62,0-4.95-1.69-5.75-4.19l-9.52-29.63h-19.86l-5.03,28.82c-0.5,2.89-3.01,5-5.95,5h-6.52c-3.75,0-6.6-3.39-5.95-7.08
			l14.38-81.87c0.51-2.89,3.02-4.99,5.95-4.99h34.25C567.97,100.53,578.57,110.33,578.57,126.16z M558.84,128.71
			c0-6.58-4.7-9.93-13.82-9.93h-21.88l-4.16,24.16h24.69C551.06,142.94,558.84,139.31,558.84,128.71z"/>
		<path class="st1" d="M663.54,125.61l-8.62,3.52c-2.71,1.11-5.88,0.09-7.3-2.47c-3.1-5.6-7.61-8.95-14.7-8.95
			c-16.1,0-26.71,17.45-26.71,36.5c0,15.84,8.59,23.49,19.86,23.49c8.86,0,14.76-4.83,17.04-13.82l0.13-0.54h-6.43
			c-3.58,0-6.29-3.23-5.67-6.75l1.06-6.06c0.48-2.75,2.88-4.76,5.67-4.76h21.63c3.56,0,6.27,3.2,5.68,6.72l-0.34,2
			c-4.97,29.12-18.65,41.47-40.93,41.47c-20.94,0-37.31-13.82-37.31-39.05c0-33.42,20.4-57.84,47.51-57.84
			c16.65,0,26.84,6.66,32.47,18.81C667.97,120.84,666.57,124.37,663.54,125.61z"/>
		<path class="st1" d="M757.59,106.69l-1.38,7.88c-0.44,2.51-2.62,4.35-5.17,4.35h-37.06c-2.55,0-4.74,1.84-5.18,4.36L707.8,129
			c-0.56,3.21,1.92,6.15,5.18,6.15h13.93c3.27,0,5.74,2.95,5.17,6.17l-1.37,7.74c-0.44,2.51-2.62,4.34-5.17,4.34h-17.63
			c-2.55,0-4.73,1.83-5.17,4.34l-2.16,12.17c-0.57,3.22,1.9,6.17,5.17,6.17h35.39c3.26,0,5.74,2.95,5.17,6.16l-1.38,7.88
			c-0.44,2.51-2.62,4.35-5.17,4.35h-56.03c-3.27,0-5.74-2.95-5.17-6.16l14.66-83.44c0.44-2.51,2.62-4.34,5.17-4.34h54.02
			C755.68,100.53,758.15,103.47,757.59,106.69z"/>
		<path class="st1" d="M784.84,183.33c0,6.84-5.77,12.62-12.62,12.62c-6.84,0-12.62-5.77-12.62-12.62c0-6.84,5.77-12.62,12.62-12.62
			C779.07,170.72,784.84,176.49,784.84,183.33z"/>
		<path class="st1" d="M797.32,165.62c0-23.08,15.17-43.08,36.91-43.08c16.51,0,27.65,11.68,27.65,30.33
			c0,23.08-15.16,43.08-36.91,43.08C808.46,195.95,797.32,184.27,797.32,165.62z M816.37,164.41c0,8.72,4.56,13.69,10.6,13.69
			c8.32,0,15.84-8.86,15.84-24.02c0-8.72-4.56-13.69-10.6-13.69C823.89,140.39,816.37,149.25,816.37,164.41z"/>
		<path class="st1" d="M937.83,144.41c0,2.95-0.27,6.84-0.94,10.33l-6.31,35.93c-0.39,2.19-2.29,3.8-4.52,3.8h-9.2
			c-2.85,0-5.01-2.58-4.52-5.39l5.76-32.73c0.4-2.42,0.54-4.43,0.54-6.17c0-6.84-3.22-10.2-9.8-10.2c-7.38,0-12.21,4.29-14.23,15.97
			l-6.05,34.72c-0.38,2.2-2.29,3.8-4.52,3.8h-9.2c-2.85,0-5.01-2.57-4.52-5.38l10.03-57.24c0.79-4.53,4.73-7.83,9.32-7.83h5.8
			c2.49,0,4.38,2.24,3.96,4.7l0,0c3.62-3.36,8.72-6.17,15.97-6.17C930.58,122.54,937.83,130.32,937.83,144.41z"/>
	</g>
	<polyline class="st3" points="267.05,215.26 280.08,169.68 279.49,199.41 267.05,215.26 	"/>
	<polygon class="st3" points="278.43,175.45 283.38,155.14 284.04,170.58 	"/>
	<polyline class="st3" points="282.35,156.51 280.78,165.78 284.59,165.06 282.35,156.51 	"/>
	<polygon class="st3" points="291.95,164.78 292.53,158.24 289.28,162.6 	"/>
	<polygon class="st3" points="278.99,173.16 282.35,156.51 285.54,173.16 	"/>
	<ellipse class="st3" cx="291.06" cy="164.35" rx="0.81" ry="0.95"/>
	<polygon class="st3" points="277.45,178.88 282.35,156.51 285.54,167.7 	"/>
	<polygon class="st3" points="274.89,187.83 282.17,157.38 286.44,174.47 	"/>
	<polygon class="st3" points="271.12,201.03 282.35,156.51 284.59,187.83 	"/>
	
		<ellipse transform="matrix(0.124 -0.9923 0.9923 0.124 95.1269 423.5719)" class="st3" cx="287.47" cy="157.91" rx="6.9" ry="6.03"/>
	<polygon class="st3" points="293.45,158.66 285.16,205.88 282.69,171.08 	"/>
	<polygon class="st3" points="271.12,201.03 281.48,157.16 284.59,172.97 	"/>
</g>
<g id="Title">
	<g>
		<path class="st3" d="M374.56,110.51l-5.07,3.9c-2.51,1.93-6.07,1.82-8.37-0.36c-4.51-4.28-10.27-7.42-17.96-7.42
			c-9.8,0-13.69,4.16-13.69,9.26c0,5.37,3.89,7.52,17.18,11.81c13.02,4.29,26.71,11,26.71,26.71c0,21.34-15.97,31.54-37.44,31.54
			c-15.31,0-26.9-5.89-34-13.57c-2.66-2.88-2.18-7.45,1.02-9.73l5.12-3.64c2.59-1.84,6.08-1.5,8.37,0.7
			c6.37,6.1,14.25,8.25,22.31,8.25c8.05,0,14.9-3.09,14.9-11.27c0-4.97-4.7-8.32-18.92-12.75c-14.36-4.56-24.69-11.54-24.69-25.23
			c0-20.94,16.64-29.66,35.3-29.66c13.31,0,23.02,4.81,29.94,11.75C378,103.56,377.65,108.13,374.56,110.51z"/>
		<path class="st3" d="M472.47,90.53c3.68,0,6.47,3.32,5.83,6.94l-8.44,48.08c-4.7,26.44-16.64,40.4-41.87,40.4
			c-19.86,0-33.95-10.07-33.95-32.34c0-3.22,0.4-8.72,1.07-12.48l8-45.7c0.5-2.83,2.96-4.9,5.83-4.9h6.76
			c3.68,0,6.47,3.33,5.83,6.95l-7.36,41.63c-0.54,3.22-1.07,7.65-1.07,12.21c0,10.87,5.91,16.24,17.18,16.24
			c10.87,0,18.12-6.44,20.94-22.28l8.68-49.85c0.49-2.84,2.95-4.91,5.83-4.91H472.47z"/>
		<path class="st3" d="M574,116.16c0,17.98-10.74,28.05-23.49,31.81l9.06,28.65c1.23,3.89-1.68,7.86-5.76,7.86h-7.49
			c-2.62,0-4.95-1.69-5.75-4.19l-9.52-29.63h-19.86l-5.03,28.82c-0.5,2.89-3.01,5-5.95,5h-6.52c-3.75,0-6.6-3.39-5.95-7.08
			l14.38-81.87c0.51-2.89,3.02-4.99,5.95-4.99h34.25C563.39,90.53,574,100.33,574,116.16z M554.27,118.71
			c0-6.58-4.7-9.93-13.82-9.93h-21.88l-4.16,24.16h24.69C546.48,132.94,554.27,129.31,554.27,118.71z"/>
		<path class="st3" d="M658.96,115.61l-8.62,3.52c-2.71,1.11-5.88,0.09-7.3-2.47c-3.1-5.6-7.61-8.95-14.7-8.95
			c-16.11,0-26.71,17.45-26.71,36.5c0,15.84,8.59,23.49,19.86,23.49c8.86,0,14.76-4.83,17.04-13.82l0.13-0.54h-6.43
			c-3.58,0-6.29-3.23-5.67-6.75l1.06-6.06c0.48-2.75,2.88-4.76,5.67-4.76h21.63c3.56,0,6.27,3.2,5.68,6.72l-0.34,2
			c-4.97,29.12-18.65,41.47-40.93,41.47c-20.94,0-37.31-13.82-37.31-39.05c0-33.42,20.4-57.84,47.51-57.84
			c16.65,0,26.84,6.66,32.47,18.81C663.4,110.84,662,114.37,658.96,115.61z"/>
		<path class="st3" d="M753.02,96.69l-1.38,7.88c-0.44,2.51-2.62,4.35-5.18,4.35H709.4c-2.55,0-4.74,1.84-5.18,4.36l-0.99,5.73
			c-0.56,3.21,1.92,6.15,5.18,6.15h13.93c3.27,0,5.74,2.95,5.17,6.17l-1.37,7.74c-0.44,2.51-2.62,4.34-5.17,4.34h-17.63
			c-2.55,0-4.73,1.83-5.17,4.34l-2.16,12.17c-0.57,3.22,1.9,6.17,5.17,6.17h35.39c3.26,0,5.74,2.95,5.17,6.16l-1.38,7.88
			c-0.44,2.51-2.62,4.35-5.17,4.35h-56.03c-3.27,0-5.74-2.95-5.17-6.16l14.66-83.44c0.44-2.51,2.62-4.34,5.17-4.34h54.02
			C751.1,90.53,753.58,93.47,753.02,96.69z"/>
		<path class="st3" d="M780.26,173.33c0,6.84-5.77,12.62-12.62,12.62c-6.84,0-12.62-5.77-12.62-12.62c0-6.84,5.77-12.62,12.62-12.62
			C774.49,160.72,780.26,166.49,780.26,173.33z"/>
		<path class="st3" d="M792.74,155.62c0-23.08,15.17-43.08,36.91-43.08c16.51,0,27.65,11.68,27.65,30.33
			c0,23.08-15.16,43.08-36.91,43.08C803.88,185.95,792.74,174.27,792.74,155.62z M811.8,154.41c0,8.72,4.56,13.69,10.6,13.69
			c8.32,0,15.84-8.86,15.84-24.02c0-8.72-4.56-13.69-10.6-13.69C819.32,130.39,811.8,139.25,811.8,154.41z"/>
		<path class="st3" d="M933.26,134.41c0,2.95-0.27,6.84-0.94,10.33L926,180.68c-0.39,2.19-2.29,3.8-4.52,3.8h-9.2
			c-2.85,0-5.01-2.58-4.52-5.39l5.76-32.73c0.4-2.42,0.54-4.43,0.54-6.17c0-6.84-3.22-10.2-9.8-10.2c-7.38,0-12.21,4.29-14.23,15.97
			l-6.05,34.72c-0.38,2.2-2.29,3.8-4.52,3.8h-9.2c-2.85,0-5.01-2.57-4.52-5.38l10.03-57.24c0.79-4.53,4.73-7.83,9.32-7.83h5.8
			c2.49,0,4.38,2.24,3.96,4.7v0c3.62-3.36,8.72-6.17,15.97-6.17C926.01,112.54,933.26,120.32,933.26,134.41z"/>
	</g>
	<polyline class="st3" points="267.05,215.26 280.08,169.68 279.49,199.41 267.05,215.26 	"/>
	<polygon class="st3" points="278.43,175.45 283.38,155.14 284.04,170.58 	"/>
	<polyline class="st3" points="282.35,156.51 280.78,165.78 284.59,165.06 282.35,156.51 	"/>
	<polygon class="st3" points="291.95,164.78 292.53,158.24 289.28,162.6 	"/>
	<polygon class="st3" points="278.99,173.16 282.35,156.51 285.54,173.16 	"/>
	<ellipse class="st3" cx="291.06" cy="164.35" rx="0.81" ry="0.95"/>
	<polygon class="st3" points="277.45,178.88 282.35,156.51 285.54,167.7 	"/>
	<polygon class="st3" points="274.89,187.83 282.17,157.38 286.44,174.47 	"/>
	<polygon class="st3" points="271.12,201.03 282.35,156.51 284.59,187.83 	"/>
	
		<ellipse transform="matrix(0.124 -0.9923 0.9923 0.124 95.1269 423.5719)" class="st3" cx="287.47" cy="157.91" rx="6.9" ry="6.03"/>
	<polygon class="st3" points="293.45,158.66 285.16,205.88 282.69,171.08 	"/>
	<polygon class="st3" points="271.12,201.03 281.48,157.16 284.59,172.97 	"/>
</g>
<g id="Left_lifeline">
</g>
<g id="Right_lifeline">
	<g>
		<polygon class="st3" points="944.86,188.94 940.79,161.6 946.61,161.6 		"/>
		<g>
			<path class="st3" d="M970.57,232.38c-0.61,0.33-1.33,0.63-1.86,0.97l-0.01-0.01C969.24,233,969.95,232.7,970.57,232.38z"/>
			<path class="st3" d="M1200,179.04v11.83c-2.98-0.03-5.98-0.2-8.96-0.21c-5.46,0-10.93,0-16.4,0.01h-6.07
				c-11.72,0.02-23.45,0.02-35.19,0.05c-4.38,0.01-8.77,0.03-13.15,0.05c-4.05,0.02-8.12,0.33-12-0.79
				c-2.2-0.73-3.29-2.31-4.72-3.69c-3.3-3.19-8.94-3.94-13.76-2.53c-3.35,0.97-5.24,2.84-7.89,4.56c-1.55,1.01-3.34,1.79-5.31,2.2
				c-1.57,0.3-3.2,0.38-4.8,0.25c-3.87-0.3-7.76-0.49-11.65-0.69c-2.66-0.14-5.76-0.19-7.98,1.21c-2.47,1.56-3.63,4.01-5.16,6.09
				c-4.88,6.71-9.81,13.38-14.54,20.14c-1.99,2.84-4.54,4.79-8.92,4.19c-4.47-0.62-5.86-3.22-6.3-6.4
				c-2.58-18.84-5.26-37.68-7.78-56.52c-0.12-0.81-0.83-5.92-1.03-7.25c-0.67-4.33-1.3-8.66-1.92-13c-0.62-4.33-1.23-8.66-1.81-13
				c-0.56-4.27-1.06-8.55-1.54-12.83c0-0.98-0.17-2.01-0.33-2.97c-0.1-0.57-0.4-1.35-1.27-1.43c-0.57-0.05-0.98,0.28-1.16,0.66
				c-0.87,1.83-1.27,8.22-1.32,8.72c-0.97,8.23-2.08,16.45-3.28,24.67c-0.06,0.35-0.72,4.97-0.9,6.33
				c-3.85,29.17-7.8,58.31-11.76,87.45c-0.84,6.17-1.72,12.45-2.65,18.66c-0.89,6.08-1.32,12.37-2.88,18.36
				c-0.41,1.6-0.7,3.16-2.19,4.39c-1.49,1.25-3.93,1.88-5.97,1.28c-1.21-0.36-2.19-1.11-2.9-1.94c-3.04-3.63-3.91-8.56-5.11-12.7
				c-1.46-5-2.58-10.05-3.63-15.12c-0.54-2.63-1.06-5.26-1.62-7.89c-0.28-1.31-0.57-2.63-0.87-3.94c-0.27-1.18-0.9-2.55-0.9-3.74
				c-2.74-12.64-5.43-25.28-8.13-37.91c-0.08-0.37-0.56-2.63-1.22-5.69c-0.02-0.09-0.03-0.17-0.05-0.26
				c-0.82-3.77-2.34-34.69,3.39-35.57c1.62-0.25,3.57,1.93,4.31,3.02c0.31,0.45,1,1.26,1.6,4.54c0.31,1.64,0.62,3.3,0.97,4.95
				c0.77,3.59,1.52,7.18,2.29,10.78c0.03,0.18,0.07,0.36,0.11,0.54c3.28,15.29,6.57,30.6,9.88,45.89c0.21,1.01,0.58,2.01,1.7,3.01
				c4.04-29.58,8.09-59.16,12.17-89.1c0.11-0.81,2.14-15.08,2.25-16c1.77-13.97,3.68-27.95,5.58-41.92
				c1.43-10.54,2.82-21.08,4.35-31.63c0.66-4.51,3.27-6.75,7.46-6.8c4.28-0.06,7.17,2.17,7.8,6.54c2.51,17.25,4.91,34.51,7.21,51.77
				c0.13,0.93,0.66,5.27,0.76,5.9c2.77,18.93,5.45,37.86,7.97,56.81c0.12,0.88,0.87,6.62,1.13,8.11c1.28,7.49,2.18,15.03,3.25,22.54
				c0.04,0.26,0.1,0.51,0.16,0.78c0.24,1.03,2.02,1.26,2.7,0.36c0.96-0.92,1.62-2.19,2.4-3.23c0.82-1.11,1.65-2.22,2.48-3.33
				c1.58-2.13,2.62-4.57,4.75-6.44c2.53-2.22,6.09-2.29,9.66-2.23c2.85,0.05,5.72,0.05,8.57,0.12c4.62,0.09,9.47,0.59,13.94-0.61
				c3.03-0.81,5.52-2.38,7.47-4.31c5.52-5.47,16-5.56,23.26-2.25c1.89,0.85,3.53,1.98,5.01,3.22c1.45,1.24,2.99,2.63,5.06,3.21
				c2.29,0.65,4.75,0.81,7.17,0.83c11.5,0.07,23.02-0.11,34.52-0.12c11.75-0.02,23.5,0,35.23,0.01
				C1194.36,179.03,1197.19,179.04,1200,179.04z"/>
			<path class="st3" d="M0,188.85c1.99,0.73,4.28,1.09,6.27,1.09c25.35-0.02,50.7-0.04,76.05-0.05c3.05-0.01,6.31-0.07,8.8-1.84
				c3.18-2.25,4.07-6.5,6.09-9.83c4.64-7.67,16.53-9.58,23.33-3.75c4.08,3.49,6.15,8.91,10.26,12.36
				c11.77,9.88,30.47-1.88,44.82,3.63c10.81,4.15,15.55,16.46,22.85,25.45c3.14,3.88,8.47,7.47,12.77,4.95
				c2.94-1.73,3.82-5.48,4.44-8.83c7.97-43.55,15.95-87.1,23.92-130.65c5.75,62.97,11.5,125.94,17.24,188.91
				c0.33,3.56,1.69,10.06,5.35,11.12c4.43,1.27,9.95-6.13,10.19-6.46c2.4-3.29,3.52-6.9,4.76-17.03c0.99-8.03,0.47-7.4,1.39-15.43
				c0.83-7.28,2.03-14.56,4.43-29.1c0.03-0.17,0.08-0.52,0.16-0.98c0.19-1.06,0.49-2.76,0.92-4.83c0,0,0.01-0.07,0.04-0.19
				c0.49-2.12,0.97-4.23,1.46-6.34c0.87-3.83,1.88-12.2,3.63-22.74c0.42-2.58,1.62-6.31,2.06-11.65c0.22-2.64,0.16-4.07-0.06-5.49
				c-0.67-4.21-2.98-9.24-5.07-9.13c-1.67,0.09-2.96,3.42-3.45,5.67c-3.45,16.03-6.89,32.07-10.34,48.1
				c-0.79,3.66-1.92,7.78-5.26,9.45c-5.55-63.03-11.09-126.07-16.63-189.11c-0.52-5.93-3.12-13.72-9.04-13.14
				c-4.87,0.48-6.84,6.4-7.69,11.22c-10.06,57.1-20.12,114.21-30.19,171.31c-4.56-0.38-6.28-5.95-8.85-9.73
				c-5.5-8.11-17.04-8.93-26.8-7.95c-9.75,0.99-20.44,2.75-28.67-2.57c-3.89-2.5-6.73-6.33-10.29-9.29
				c-11.18-9.3-29.66-7.94-39.36,2.89c-2.68,2.98-4.88,6.66-8.53,8.32c-2.5,1.14-5.34,1.15-8.09,1.15
				c-14.45-0.02-28.9-0.05-43.35-0.07c-7.23-0.01-14.46-0.11-21.68-0.03c-2.08,0.02-5.23-0.15-7.88,0.46V188.85z"/>
			<path class="st3" d="M947.63,185.78v0.01c0,0,0,0-0.01-0.01H947.63z"/>
			<path class="st3" d="M280.22,219.28"/>
			<path class="st3" d="M308.96,240.09"/>
			<path class="st3" d="M287.83,172.97"/>
			<path class="st3" d="M287.44,189.91L276.18,267c0,0-0.02,0.17-0.03,0.17c-0.04,0.29-0.17,1.14-0.21,1.43
				c-0.18,1.21-0.35,2.42-0.53,3.63l-7.47-29.63L287.44,189.91z"/>
			<polygon class="st3" points="289.38,181.57 284.83,207.78 278.69,195.43 			"/>
			<ellipse class="st3" cx="266.16" cy="273.23" rx="9" ry="9.89"/>
			<path class="st3" d="M256.98,271.47"/>
			<path class="st3" d="M256.75,269.22"/>
			<polygon class="st3" points="256.66,268.32 257.19,274.05 257.68,272.51 			"/>
			<path class="st3" d="M274.73,275.01"/>
			<path class="st3" d="M275.58,271.12"/>
			<path class="st3" d="M276.25,266.58"/>
			<polygon class="st3" points="275.78,269.78 275.09,274.4 274.29,271.7 274.69,269.62 			"/>
			<path class="st3" d="M271.42,206.73c0.81-2.68,1.61-5.35,2.42-8.03c0.85,3.8,1.8,7.58,2.69,11.37"/>
			<polygon class="st3" points="267.05,215.26 272.62,204.39 275.18,211.29 			"/>
			
				<ellipse transform="matrix(0.1668 -0.986 0.986 0.1668 84.3257 414.5392)" class="st3" cx="287.44" cy="157.38" rx="5.68" ry="5.16"/>
			
				<ellipse transform="matrix(0.9868 -0.1617 0.1617 0.9868 -13.4258 155.4496)" class="st3" cx="948.26" cy="160.2" rx="5.43" ry="6.92"/>
			
				<ellipse transform="matrix(0.9945 -0.1049 0.1049 0.9945 -11.6424 100.2981)" class="st3" cx="947.26" cy="160.78" rx="6.47" ry="7.77"/>
			<polygon class="st3" points="289.38,181.57 291.95,164.78 289.28,163.16 288.01,183.35 			"/>
		</g>
	</g>
</g>
</svg>
